<svg width="22" height="20" viewBox="0 0 22 20" fill="none" xmlns="http://www.w3.org/2000/svg">
<path d="M20.4898 2.09288C18.4761 0.354463 15.2114 0.354463 13.1977 2.09284L8.88821 5.81324C6.80529 7.61149 6.99814 10.4767 8.88821 12.1085C9.20472 12.3817 9.55491 12.6045 9.9247 12.7875L10.7112 12.1085C11.2271 11.663 11.0455 11.1423 11.0363 10.7666C10.923 10.6973 10.8129 10.6224 10.7112 10.5346C9.74131 9.69737 9.6977 8.26202 10.7112 7.38703C10.8618 7.25708 14.9293 3.74557 15.0207 3.6667C16.0261 2.79872 17.6613 2.79872 18.6667 3.6667C19.6721 4.53469 19.6721 5.94634 18.6667 6.81432L15.8182 9.27345C15.9006 9.66692 16.3949 10.599 16.1406 12.1365C16.153 12.1259 16.1679 12.1192 16.1803 12.1085L20.4898 8.38811C22.5034 6.64969 22.5034 3.8313 20.4898 2.09288Z" fill="#4D525B"/>
<path d="M13.4457 8.17414C13.1292 7.9009 12.779 7.67811 12.4093 7.49512L11.6228 8.17414C11.1068 8.6195 11.2884 9.1402 11.2976 9.51594C11.411 9.58523 11.5211 9.66013 11.6228 9.74789C12.5927 10.5852 12.6363 12.0205 11.6228 12.8955C11.4719 13.0257 7.06741 16.8281 6.97928 16.9042C5.97385 17.7722 4.33867 17.7722 3.33324 16.9042C2.32782 16.0362 2.32782 14.6246 3.33324 13.7566L6.51582 11.0091C6.43345 10.6156 5.93905 9.68357 6.19338 8.14606C6.18096 8.15659 6.16601 8.16346 6.15363 8.1741L1.5102 12.1828C-0.503401 13.9213 -0.503401 16.7397 1.5102 18.4781C3.5239 20.2164 6.78854 20.2164 8.80223 18.4781L13.4457 14.4694C15.49 12.7045 15.3783 9.84248 13.4457 8.17414Z" fill="#4D525B"/>
</svg>
